<svg width="24" height="24" viewBox="0 0 24 24" fill="none" xmlns="http://www.w3.org/2000/svg">
<path d="M20.317 4.37579C18.7873 3.67391 17.147 3.15679 15.4319 2.86062C15.4007 2.8549 15.3695 2.86919 15.3534 2.89776C15.1424 3.27297 14.9087 3.76247 14.7451 4.14721C12.9004 3.87104 11.0652 3.87104 9.25832 4.14721C9.09465 3.75392 8.85248 3.27297 8.64058 2.89776C8.62449 2.87014 8.59328 2.85585 8.56205 2.86062C6.84791 3.15584 5.20756 3.67296 3.67693 4.37579C3.66368 4.3815 3.65233 4.39103 3.64479 4.4034C0.533392 9.05177 -0.31895 13.5859 0.0991801 18.0638C0.101072 18.0857 0.11337 18.1066 0.130398 18.1199C2.18321 19.6275 4.17171 20.5427 6.12328 21.1493C6.15451 21.1589 6.18761 21.1474 6.20748 21.1217C6.66913 20.4913 7.08064 19.8265 7.43348 19.1275C7.4543 19.0866 7.43442 19.038 7.39186 19.0218C6.73913 18.7742 6.1176 18.4723 5.51973 18.1295C5.47244 18.1019 5.46865 18.0342 5.51216 18.0018C5.63797 17.9076 5.76382 17.8095 5.88396 17.7104C5.90569 17.6923 5.93598 17.6885 5.96153 17.6999C9.88928 19.4932 14.1415 19.4932 18.023 17.6999C18.0485 17.6876 18.0788 17.6914 18.1015 17.7095C18.2216 17.8085 18.3475 17.9076 18.4742 18.0018C18.5177 18.0342 18.5149 18.1019 18.4676 18.1295C17.8697 18.479 17.2482 18.7742 16.5945 19.0209C16.552 19.0371 16.533 19.0866 16.5538 19.1275C16.9143 19.8256 17.3258 20.4903 17.7789 21.1208C17.7978 21.1474 17.8319 21.1589 17.8631 21.1493C19.8241 20.5427 21.8126 19.6275 23.8654 18.1199C23.8834 18.1066 23.8948 18.0866 23.8967 18.0647C24.3971 12.8878 23.0585 8.39085 20.3482 4.40435C20.3416 4.39103 20.3303 4.3815 20.317 4.37579Z" fill="#5865F2"/>
<path d="M5.86328 12.9189C5.86328 14.2522 6.83765 15.3379 8.02017 15.3379C9.22156 15.3379 10.177 14.2522 10.177 12.9189C10.196 11.5952 9.23102 10.5 8.02017 10.5C6.81875 10.5 5.86328 11.5856 5.86328 12.9189Z" fill="white"/>
<path d="M13.838 12.9189C13.838 14.2522 14.8124 15.3379 15.9949 15.3379C17.2058 15.3379 18.1518 14.2522 18.1518 12.9189C18.1707 11.5952 17.2058 10.5 15.9949 10.5C14.7935 10.5 13.838 11.5856 13.838 12.9189Z" fill="white"/>
</svg>
