<svg width="171" height="48" viewBox="0 0 171 48" fill="none" xmlns="http://www.w3.org/2000/svg">
<path d="M24.4471 16.8139C24.1548 17.8304 23.0381 18.3344 22.064 17.9292C21.1873 17.565 20.7468 16.5866 20.9628 15.6563C21.0998 15.0662 21.1986 14.5043 21.2593 13.9692C21.3779 12.9528 21.3765 12.0464 21.2551 11.2558C21.1337 10.4638 20.8922 9.80735 20.5337 9.28782C20.2071 8.77516 19.7311 8.37504 19.1699 8.14147C18.1718 7.72641 17.0692 7.89017 15.8607 8.63276C14.6565 9.36123 13.4184 10.6544 12.1421 12.5109C10.8715 14.3532 9.63342 16.7363 8.42919 19.6601C7.20095 22.6332 6.38777 25.2295 5.9826 27.4488C5.59013 29.6568 5.56189 31.4398 5.89789 32.7951C6.2466 34.1405 6.91719 35.0201 7.90825 35.4323C8.45742 35.661 9.03342 35.7231 9.63625 35.6186C10.2504 35.5029 10.8744 35.2219 11.5068 34.773C12.145 34.3269 12.7774 33.7156 13.4057 32.9391C13.7346 32.5382 14.0551 32.0921 14.3685 31.605C14.8838 30.7975 15.8904 30.4248 16.7685 30.8017C17.7341 31.2168 18.1591 32.3659 17.6395 33.2822C17.0014 34.4102 16.3167 35.4577 15.5897 36.4276C14.5097 37.8761 13.3788 39.0817 12.1986 40.0417C11.024 40.9918 9.84519 41.6271 8.66213 41.9504C7.53517 42.2643 6.33522 42.1881 5.25695 41.7344C3.64472 41.0638 2.53225 39.6732 1.91813 37.5655C1.30401 35.4563 1.24754 32.757 1.75013 29.4676C2.25272 26.1782 3.36519 22.4455 5.08613 18.2695C6.81413 14.0808 8.65789 10.653 10.6174 7.98476C12.584 5.30382 14.5252 3.43605 16.4438 2.38146C18.3624 1.32688 20.1214 1.13205 21.721 1.79841C22.7429 2.22379 23.6073 2.95644 24.1944 3.89488C24.8226 4.86758 25.2362 6.08594 25.4367 7.54852C25.6442 8.99841 25.6202 10.6629 25.3633 12.5419C25.1868 13.8761 24.8819 15.3005 24.4471 16.8139Z" fill="black"/>
<path d="M18.1975 23.1402C18.2984 22.8937 18.447 22.6697 18.6347 22.4809C18.8224 22.292 19.0456 22.1422 19.2915 22.0398C19.5373 21.9375 19.8009 21.8848 20.0672 21.8846C20.3335 21.8845 20.5972 21.9369 20.8431 22.039L20.9419 22.0813C21.439 22.2895 21.8335 22.686 22.039 23.1841C22.2446 23.6823 22.2445 24.2416 22.0389 24.7397C21.938 24.9863 21.7893 25.2105 21.6015 25.3994C21.4136 25.5884 21.1903 25.7383 20.9443 25.8406C20.6983 25.943 20.4345 25.9957 20.1681 25.9957C19.9016 25.9958 19.6378 25.9431 19.3918 25.8409L19.293 25.7985C18.7962 25.5901 18.402 25.1935 18.1967 24.6954C17.9915 24.1972 17.9917 23.6381 18.1975 23.1402ZM56.5636 36.6013C55.9283 36.9966 55.1956 37.3806 54.3683 37.7477C53.491 38.1317 52.5739 38.4172 51.6337 38.599C50.6398 38.8249 49.5626 38.9378 48.4022 38.9378C46.1659 38.9378 44.1358 38.5425 42.3132 37.7477C40.5471 36.9664 38.9553 35.8393 37.6318 34.4329C36.3348 33.0178 35.3096 31.3758 34.6078 29.5891C33.9109 27.7124 33.5598 25.725 33.5716 23.7232C33.5716 21.5138 33.9443 19.4597 34.6897 17.5609C35.4033 15.7132 36.4729 14.0238 37.8379 12.5886C39.1774 11.1817 40.7831 10.055 42.5617 9.2738C44.356 8.48039 46.3029 8.08368 48.4022 8.08368C49.9495 8.08368 51.3993 8.29545 52.7518 8.7218C54.1057 9.14533 55.3353 9.69874 56.4393 10.3792L55.5697 12.2922C54.5443 11.6405 53.4453 11.1126 52.2958 10.7194C51.0569 10.2903 49.7542 10.0745 48.4431 10.0813C46.7038 10.0813 45.0605 10.4357 43.5146 11.1444C41.9683 11.8242 40.5738 12.8068 39.4135 14.0343C38.2371 15.2778 37.309 16.7345 36.6789 18.326C36.0153 19.9693 35.685 21.7397 35.685 23.6385C35.685 25.4526 35.9744 27.1665 36.5546 28.7816C37.1334 30.3484 38.0055 31.7906 39.124 33.031C40.2684 34.258 41.649 35.241 43.1829 35.9209C44.757 36.6013 46.5104 36.9402 48.4431 36.9402C49.8803 36.9402 51.1918 36.7425 52.3791 36.3472C53.5177 35.9593 54.6033 35.4305 55.6106 34.7731L56.5636 36.6013ZM69.7946 38.9378C68.2488 38.9378 66.8398 38.5849 65.5692 37.8762C64.3234 37.1359 63.2949 36.0802 62.5876 34.8154C61.8676 33.5124 61.509 31.9962 61.509 30.2696C61.509 28.4272 61.8958 26.8545 62.6695 25.5514C63.4012 24.2592 64.4958 23.2098 65.8177 22.5331C67.1433 21.8258 68.6483 21.4714 70.3339 21.4714C71.7697 21.4714 73.1222 21.9091 74.3928 22.7886C75.6916 23.6667 76.6163 24.7722 77.1683 26.1034L76.8789 26.6992L77.1273 21.9811H78.8666V38.5976H76.9198V33.4559L77.3335 34.2211C77.1415 34.7872 76.8111 35.3547 76.341 35.9209C75.8253 36.5 75.2407 37.014 74.6003 37.4512C73.9368 37.903 73.1913 38.2729 72.3626 38.5552C71.5622 38.8107 70.7066 38.9378 69.7946 38.9378ZM70.2097 37.238C71.4238 37.238 72.5151 36.9839 73.4822 36.4729C74.4571 35.952 75.2834 35.1917 75.8836 34.2634C76.492 33.3289 76.8365 32.2517 76.9198 31.0333V28.6531C76.7089 27.6254 76.2543 26.6633 75.5942 25.8479C74.9623 25.0294 74.1559 24.3619 73.2337 23.894C72.2846 23.4098 71.2327 23.1619 70.1673 23.1712C68.9532 23.1712 67.8337 23.4677 66.8116 24.0634C65.7899 24.6307 64.9448 25.469 64.3692 26.486C63.7608 27.535 63.4572 28.7674 63.4572 30.1849C63.4572 31.4865 63.7608 32.6766 64.3678 33.7538C64.9633 34.7895 65.8021 35.6646 66.8116 36.3034C67.8373 36.9202 69.0128 37.2435 70.2097 37.238ZM95.1725 38.9378C93.6361 38.9407 92.1294 38.5138 90.8229 37.7053C89.469 36.8554 88.4751 35.7656 87.8398 34.4329L88.1716 33.7114V46.5882H86.2233V21.854H87.964L88.1716 27.2936L87.7975 26.0611C88.516 24.7298 89.565 23.6385 90.9457 22.7886C92.2914 21.9207 93.8606 21.463 95.4619 21.4714C97.0078 21.4714 98.4026 21.8526 99.6464 22.6192C100.89 23.3854 101.906 24.4711 102.587 25.7632C103.333 27.0663 103.705 28.5684 103.705 30.2682C103.705 31.9397 103.318 33.4418 102.546 34.7731C101.823 36.0543 100.762 37.1128 99.4798 37.8338C98.2092 38.5693 96.7735 38.9378 95.1725 38.9378ZM94.8408 37.2804C96.1113 37.2804 97.2563 36.9698 98.2784 36.3458C99.3105 35.7398 100.167 34.8757 100.765 33.8385C101.4 32.7613 101.717 31.5712 101.717 30.2682C101.717 28.9369 101.414 27.7467 100.805 26.6992C100.226 25.6513 99.3837 24.7722 98.3617 24.1482C97.3678 23.5256 96.2356 23.2136 94.965 23.2136C93.7495 23.2136 92.6455 23.4959 91.6502 24.0634C90.6704 24.6164 89.8444 25.4055 89.2473 26.359C88.6318 27.3479 88.2628 28.4702 88.1716 29.6314V30.991C88.2535 32.1529 88.5993 33.2145 89.2064 34.1787C89.8184 35.1196 90.641 35.9051 91.6092 36.4729C92.6009 37.0107 93.7127 37.2885 94.8408 37.2804ZM113.297 38.9378C112.358 38.9378 111.377 38.7684 110.356 38.4296C109.334 38.0597 108.505 37.4794 107.87 36.686L108.781 35.3689C109.334 35.9632 109.982 36.4446 110.729 36.8131C111.502 37.1533 112.317 37.3227 113.171 37.3227C113.806 37.3227 114.402 37.238 114.954 37.0686C115.533 36.871 116.003 36.5449 116.362 36.0903C116.722 35.6385 116.901 35.0286 116.901 34.2634C116.901 33.47 116.679 32.8616 116.237 32.4366C115.824 32.0117 115.286 31.6714 114.622 31.4159C113.987 31.1336 113.309 30.878 112.592 30.6507C111.406 30.2554 110.425 29.7162 109.652 29.0357C108.906 28.3566 108.532 27.3924 108.532 26.1458C108.532 25.2394 108.74 24.446 109.153 23.7656C109.593 23.0886 110.209 22.5451 110.936 22.1943C111.68 21.7976 112.523 21.5985 113.463 21.5985C114.319 21.5985 115.16 21.7397 115.99 22.0234C116.846 22.3058 117.618 22.7886 118.309 23.4691L117.439 24.871C117.008 24.2554 116.379 23.8056 115.657 23.5962C114.94 23.3703 114.305 23.2432 113.751 23.215C113.283 23.215 112.786 23.3138 112.261 23.5114C111.764 23.7091 111.336 24.007 110.976 24.4037C110.645 24.7707 110.479 25.2677 110.479 25.8917C110.479 26.5425 110.66 27.0818 111.018 27.5067C111.377 27.902 111.833 28.2282 112.386 28.4837C112.965 28.7378 113.558 28.9792 114.166 29.2065C114.968 29.4606 115.714 29.7726 116.404 30.1411C117.121 30.4799 117.703 30.9486 118.143 31.543C118.613 32.1105 118.848 32.8757 118.848 33.8385C118.859 34.7542 118.646 35.6587 118.227 36.4729C117.812 37.238 117.19 37.8479 116.363 38.3011C115.561 38.7246 114.539 38.9378 113.297 38.9378ZM129.833 39.0649C128.314 39.0649 127.098 38.6131 126.186 37.7053C125.276 36.7707 124.791 35.5665 124.738 34.094V21.9811H126.685V33.4983C126.74 34.5754 127.07 35.4677 127.678 36.1764C128.314 36.8837 129.253 37.2663 130.495 37.3227C131.545 37.3227 132.525 37.0404 133.436 36.4729C134.349 35.9049 135.104 35.1159 135.632 34.1787C136.211 33.1863 136.502 32.0682 136.502 30.8216V21.9811H138.449V38.5976H136.709L136.502 33.3712L136.791 34.519C136.516 35.3689 136.019 36.1482 135.301 36.8554C134.586 37.5515 133.742 38.1002 132.816 38.4705C131.872 38.8685 130.857 39.0712 129.833 39.0663V39.0649ZM145.814 6.2978H147.761V38.599H145.814V6.2978ZM162.161 38.9378C160.477 38.9378 158.984 38.5566 157.687 37.7914C156.409 37.0466 155.351 35.9758 154.622 34.6884C153.903 33.3571 153.545 31.8691 153.545 30.2272C153.545 28.6107 153.932 27.1383 154.704 25.8056C155.454 24.4985 156.523 23.4024 157.811 22.6192C159.137 21.8258 160.656 21.414 162.202 21.4291C164.136 21.4291 165.751 22.0093 167.05 23.1712C168.375 24.3331 169.327 25.8479 169.907 27.7185L155.74 33.3289L155.16 31.8832L168.125 26.6992L167.712 27.2936C167.24 26.1569 166.501 25.151 165.557 24.3613C164.619 23.5397 163.46 23.1289 162.077 23.1289C160.835 23.1289 159.717 23.4394 158.723 24.0634C157.727 24.688 156.902 25.5494 156.32 26.5707C155.74 27.6197 155.451 28.8098 155.451 30.1411C155.451 31.3877 155.726 32.5496 156.279 33.6253C156.858 34.7025 157.66 35.5665 158.681 36.2187C159.703 36.8696 160.877 37.1957 162.202 37.1957C163.085 37.1957 163.928 37.0263 164.729 36.686C165.526 36.3654 166.267 35.9208 166.925 35.3689L167.919 36.8131C167.106 37.459 166.198 37.9752 165.227 38.3434C164.252 38.736 163.211 38.9378 162.161 38.9378Z" fill="black"/>
</svg>
