<svg width="26" height="45" viewBox="0 0 26 45" fill="none" xmlns="http://www.w3.org/2000/svg">
<path fill-rule="evenodd" clip-rule="evenodd" d="M21.9349 17.9083C22.9688 18.3461 24.1552 17.8018 24.4655 16.7028C24.9273 15.0678 25.2514 13.5295 25.4378 12.088C25.7109 10.0574 25.7376 8.25893 25.5179 6.69245C25.3038 5.11231 24.8636 3.7968 24.1972 2.74591C23.5307 1.69503 22.6553 0.940016 21.5707 0.480878C19.8708 -0.238707 18.0023 -0.0287035 15.9651 1.11089C13.928 2.25049 11.8655 4.26828 9.77777 7.16426C7.69558 10.0466 5.73758 13.7502 3.90364 18.2751C2.07525 22.7864 0.894176 26.819 0.3604 30.3728C-0.173375 33.9266 -0.114235 36.8426 0.537824 39.1206C1.18988 41.3986 2.37216 42.9002 4.08466 43.6251C5.24536 44.1164 6.451 44.1944 7.70156 43.859C8.95766 43.5098 10.2097 42.8226 11.4574 41.7973C12.7108 40.7583 13.9109 39.4565 15.0577 37.8919C15.8311 36.8444 16.5571 35.7119 17.2356 34.4945C17.7878 33.5036 17.3366 32.2623 16.3106 31.8141C15.3783 31.4068 14.3081 31.8093 13.7606 32.6814C13.4292 33.2091 13.0889 33.6899 12.7395 34.1238C12.0725 34.9626 11.4 35.6228 10.7218 36.1045C10.0499 36.5888 9.38783 36.8931 8.73556 37.0174C8.09521 37.1307 7.48323 37.0638 6.89975 36.8168C5.84689 36.3711 5.13573 35.4214 4.76632 33.9677C4.40879 32.503 4.4386 30.5777 4.85574 28.1917C5.28476 25.7948 6.15031 22.99 7.45234 19.7775C8.7322 16.6196 10.0469 14.045 11.3963 12.0537C12.7514 10.0487 14.0679 8.65212 15.346 7.86379C16.6296 7.06189 17.801 6.88506 18.8602 7.33347C19.4564 7.58589 19.9394 7.99854 20.3091 8.57147C20.6906 9.13339 20.9459 9.84202 21.0748 10.6974C21.2037 11.5528 21.205 12.5303 21.0789 13.63C21.0147 14.2074 20.9099 14.815 20.7646 15.453C20.5357 16.4572 21.0028 17.5138 21.9349 17.9083ZM20.6374 22.3482C19.5399 21.8835 18.2816 22.4162 17.8269 23.538C17.3722 24.6597 17.8935 25.9457 18.991 26.4104L19.0964 26.455C20.194 26.9196 21.4523 26.3869 21.9069 25.2652C22.3615 24.1434 21.8403 22.8574 20.7427 22.3928L20.6374 22.3482Z" fill="#FFFFFF"/>
</svg>