<svg width="24" height="24" viewBox="0 0 24 24" fill="none" xmlns="http://www.w3.org/2000/svg">
<g clip-path="url(#clip0_510_25842)">
<path d="M23.7663 12.2763C23.7663 11.4605 23.7001 10.6404 23.559 9.83789H12.2402V14.4589H18.722C18.453 15.9492 17.5888 17.2676 16.3233 18.1054V21.1037H20.1903C22.4611 19.0137 23.7663 15.9272 23.7663 12.2763Z" fill="#4285F4"/>
<path d="M12.2396 24.0003C15.4761 24.0003 18.2054 22.9377 20.1941 21.1034L16.3271 18.1051C15.2512 18.837 13.8622 19.2515 12.244 19.2515C9.1134 19.2515 6.45898 17.1394 5.50656 14.2998H1.51611V17.3907C3.55323 21.4429 7.70241 24.0003 12.2396 24.0003Z" fill="#34A853"/>
<path d="M5.50277 14.3007C5.00011 12.8103 5.00011 11.1965 5.50277 9.70618V6.61523H1.51674C-0.185266 10.006 -0.185266 14.0009 1.51674 17.3916L5.50277 14.3007Z" fill="#FBBC04"/>
<path d="M12.2396 4.74966C13.9504 4.7232 15.6039 5.36697 16.843 6.54867L20.269 3.12262C18.0996 1.0855 15.2203 -0.034466 12.2396 0.000808666C7.70241 0.000808666 3.55323 2.55822 1.51611 6.61481L5.50215 9.70575C6.45016 6.86173 9.10898 4.74966 12.2396 4.74966Z" fill="#EA4335"/>
</g>
<defs>
<clipPath id="clip0_510_25842">
<rect width="24" height="24" fill="white"/>
</clipPath>
</defs>
</svg>
